<?xml version="1.0" encoding="utf-8"?>
<!-- Generator: Adobe Illustrator 15.0.2, SVG Export Plug-In . SVG Version: 6.00 Build 0)  -->
<!DOCTYPE svg PUBLIC "-//W3C//DTD SVG 1.1//EN" "http://www.w3.org/Graphics/SVG/1.1/DTD/svg11.dtd">
<svg version="1.1" id="Layer_1" xmlns="http://www.w3.org/2000/svg" xmlns:xlink="http://www.w3.org/1999/xlink" x="0px" y="0px"
	 width="77px" height="77px" viewBox="0 0 77 77" enable-background="new 0 0 77 77" xml:space="preserve">
<g>
	<path fill="#DCD9C6" d="M38.5,1.5C18.066,1.5,1.498,18.066,1.498,38.501C1.498,58.934,18.066,75.5,38.5,75.5
		c20.434,0,37.002-16.566,37.002-36.999C75.502,18.066,58.934,1.5,38.5,1.5z M48.502,16.674c2.693,0,4.877,2.184,4.877,4.881
		c0,2.692-2.184,4.876-4.877,4.876c-2.696,0-4.884-2.184-4.884-4.876C43.618,18.857,45.806,16.674,48.502,16.674z M28.947,16.674
		c2.696,0,4.88,2.184,4.88,4.881c0,2.692-2.185,4.876-4.88,4.876c-2.694,0-4.881-2.184-4.881-4.876
		C24.066,18.857,26.254,16.674,28.947,16.674z M34.118,60.408h-2.921V47.75h-3.895v12.658h-2.921V29.25h9.736V60.408z
		 M53.592,48.725v11.684h-2.92V48.725h-3.896v11.684h-2.92V48.725h-5.643c0-3.896,1.748-7.341,5.643-9.104V29.25h9.736v10.369
		c2.922,1.761,5.195,5.209,5.195,9.105H53.592z"/>
	<g>
		<path fill="#9D2033" d="M38.574,72.783H38.5c-0.473,0-0.953-0.01-1.422-0.031l0.026-0.625c0.463,0.02,0.929,0.027,1.396,0.027
			h0.074V72.783z M41.214,72.676l-0.048-0.623c0.465-0.04,0.928-0.084,1.389-0.139l0.075,0.619
			C42.162,72.589,41.688,72.641,41.214,72.676z M34.445,72.543c-0.466-0.053-0.94-0.119-1.404-0.195l0.099-0.619
			c0.46,0.074,0.921,0.139,1.38,0.193L34.445,72.543z M45.235,72.119l-0.123-0.617c0.454-0.091,0.915-0.191,1.362-0.301l0.148,0.606
			C46.164,71.922,45.697,72.025,45.235,72.119z M30.452,71.828c-0.46-0.109-0.922-0.231-1.378-0.361l0.176-0.605
			c0.444,0.128,0.898,0.25,1.347,0.357L30.452,71.828z M49.16,71.084l-0.196-0.596c0.44-0.143,0.884-0.298,1.319-0.463l0.22,0.59
			C50.062,70.777,49.609,70.938,49.16,71.084z M26.568,70.641c-0.444-0.162-0.892-0.344-1.323-0.525l0.241-0.578
			c0.427,0.182,0.866,0.355,1.303,0.517L26.568,70.641z M52.937,69.594l-0.263-0.568c0.416-0.195,0.836-0.404,1.25-0.617
			l0.287,0.558C53.789,69.184,53.361,69.393,52.937,69.594z M22.851,68.996c-0.417-0.213-0.84-0.441-1.253-0.677l0.308-0.544
			c0.407,0.229,0.822,0.453,1.232,0.666L22.851,68.996z M56.502,67.661l-0.33-0.528c0.395-0.246,0.791-0.5,1.168-0.761l0.354,0.519
			C57.305,67.156,56.904,67.416,56.502,67.661z M19.356,66.926c-0.391-0.266-0.784-0.541-1.164-0.822l0.372-0.505
			c0.373,0.275,0.757,0.548,1.142,0.807L19.356,66.926z M59.822,65.328l-0.394-0.49c0.362-0.287,0.724-0.588,1.076-0.893
			l0.409,0.476C60.557,64.727,60.188,65.035,59.822,65.328z M16.13,64.457c-0.359-0.309-0.713-0.628-1.062-0.949l0.43-0.459
			c0.338,0.315,0.69,0.631,1.04,0.932L16.13,64.457z M62.842,62.617l-0.448-0.441c0.331-0.328,0.649-0.666,0.964-1.01l0.467,0.423
			C63.504,61.938,63.177,62.283,62.842,62.617z M13.218,61.629c-0.318-0.346-0.635-0.705-0.94-1.066l0.479-0.405
			c0.299,0.353,0.61,0.709,0.921,1.05L13.218,61.629z M65.524,59.57l-0.491-0.385c0.287-0.369,0.565-0.744,0.832-1.119l0.511,0.363
			C66.104,58.812,65.816,59.199,65.524,59.57z M10.653,58.48c-0.274-0.383-0.543-0.777-0.803-1.17l0.524-0.346
			c0.253,0.387,0.519,0.774,0.792,1.152L10.653,58.48z M67.833,56.227l-0.535-0.324c0.24-0.396,0.476-0.806,0.7-1.211l0.547,0.303
			C68.316,55.408,68.08,55.821,67.833,56.227z M8.483,55.053c-0.227-0.412-0.45-0.835-0.661-1.257l0.561-0.282
			c0.205,0.416,0.425,0.83,0.649,1.232L8.483,55.053z M69.732,52.633l-0.57-0.26c0.188-0.42,0.376-0.854,0.549-1.283l0.584,0.236
			C70.117,51.763,69.924,52.204,69.732,52.633z M6.736,51.395c-0.182-0.436-0.353-0.881-0.508-1.324l0.588-0.211
			c0.158,0.434,0.324,0.873,0.497,1.299L6.736,51.395z M71.19,48.838l-0.597-0.188c0.139-0.441,0.271-0.895,0.39-1.342l0.608,0.164
			C71.467,47.931,71.334,48.389,71.19,48.838z M5.43,47.553c-0.122-0.455-0.243-0.918-0.347-1.377l0.613-0.141
			c0.102,0.45,0.215,0.906,0.339,1.352L5.43,47.553z M72.182,44.899l-0.616-0.116c0.086-0.457,0.165-0.916,0.231-1.377l0.625,0.094
			C72.352,43.966,72.273,44.438,72.182,44.899z M4.594,43.58c-0.07-0.467-0.13-0.939-0.183-1.412l0.624-0.065
			c0.052,0.465,0.106,0.929,0.18,1.387L4.594,43.58z M72.701,40.875l-0.625-0.041c0.031-0.464,0.055-0.93,0.063-1.396l0.632,0.018
			C72.756,39.928,72.732,40.406,72.701,40.875z M4.232,39.537c-0.011-0.345-0.015-0.694-0.015-1.036c0-0.129,0-0.258,0-0.383
			l0.627,0.006c0,0.125,0,0.25,0,0.377c0,0.338,0.004,0.679,0.016,1.017L4.232,39.537z M72.115,36.849
			c-0.023-0.463-0.053-0.933-0.1-1.396l0.63-0.056c0.04,0.47,0.072,0.948,0.095,1.42L72.115,36.849z M4.974,35.535L4.348,35.48
			c0.04-0.469,0.094-0.947,0.151-1.414l0.625,0.08C5.063,34.606,5.01,35.073,4.974,35.535z M71.687,32.883
			c-0.075-0.456-0.165-0.917-0.265-1.371l0.617-0.13c0.101,0.462,0.186,0.932,0.264,1.397L71.687,32.883z M5.556,31.591
			l-0.614-0.128c0.097-0.461,0.205-0.929,0.32-1.385l0.607,0.154C5.757,30.682,5.65,31.139,5.556,31.591z M70.79,29.002
			c-0.13-0.445-0.271-0.892-0.421-1.33l0.593-0.203c0.153,0.447,0.3,0.903,0.429,1.357L70.79,29.002z M6.604,27.749l-0.593-0.203
			c0.148-0.447,0.312-0.899,0.484-1.34l0.586,0.224C6.914,26.863,6.753,27.307,6.604,27.749z M69.439,25.256
			c-0.184-0.426-0.377-0.853-0.578-1.269l0.568-0.272c0.199,0.425,0.397,0.86,0.586,1.291L69.439,25.256z M8.108,24.05l-0.567-0.271
			c0.199-0.425,0.417-0.854,0.64-1.271L8.734,22.8C8.518,23.211,8.305,23.631,8.108,24.05z M67.656,21.697
			c-0.232-0.4-0.477-0.801-0.724-1.193l0.526-0.337c0.256,0.398,0.5,0.808,0.735,1.216L67.656,21.697z M10.038,20.56l-0.531-0.337
			c0.25-0.398,0.514-0.796,0.788-1.187l0.513,0.356C10.543,19.775,10.282,20.165,10.038,20.56z M65.457,18.374
			c-0.273-0.372-0.564-0.742-0.857-1.102l0.483-0.396c0.3,0.366,0.594,0.744,0.878,1.12L65.457,18.374z M12.363,17.318l-0.489-0.395
			c0.297-0.367,0.606-0.732,0.92-1.085l0.469,0.416C12.96,16.6,12.652,16.959,12.363,17.318z M62.89,15.328
			c-0.322-0.335-0.65-0.669-0.982-0.991l0.435-0.452c0.335,0.329,0.678,0.669,0.998,1.009L62.89,15.328z M15.051,14.377l-0.435-0.45
			c0.34-0.329,0.691-0.656,1.04-0.97l0.419,0.467C15.725,13.732,15.384,14.055,15.051,14.377z M59.977,12.606
			c-0.354-0.297-0.725-0.59-1.094-0.872l0.382-0.497c0.374,0.285,0.747,0.583,1.114,0.884L59.977,12.606z M18.07,11.771l-0.38-0.498
			c0.375-0.288,0.757-0.57,1.144-0.841l0.357,0.513C18.814,11.212,18.438,11.489,18.07,11.771z M56.763,10.243
			c-0.386-0.253-0.787-0.5-1.184-0.737l0.313-0.54c0.41,0.241,0.815,0.493,1.215,0.751L56.763,10.243z M21.369,9.539l-0.32-0.541
			c0.402-0.239,0.82-0.474,1.235-0.699l0.299,0.552C22.175,9.07,21.765,9.302,21.369,9.539z M53.295,8.273
			c-0.418-0.205-0.842-0.402-1.268-0.59l0.252-0.574c0.432,0.19,0.866,0.393,1.289,0.601L53.295,8.273z M24.905,7.711l-0.253-0.572
			c0.432-0.191,0.873-0.376,1.309-0.547l0.232,0.583C25.76,7.343,25.33,7.524,24.905,7.711z M49.613,6.729
			c-0.437-0.153-0.885-0.3-1.325-0.436l0.183-0.6c0.451,0.139,0.905,0.289,1.352,0.445L49.613,6.729z M28.635,6.318l-0.183-0.602
			c0.452-0.137,0.912-0.266,1.368-0.387l0.157,0.606C29.529,6.054,29.078,6.181,28.635,6.318z M45.779,5.637
			c-0.451-0.102-0.913-0.192-1.369-0.274l0.111-0.617c0.464,0.084,0.932,0.176,1.391,0.278L45.779,5.637z M32.511,5.377L32.399,4.76
			c0.463-0.085,0.936-0.159,1.402-0.223l0.086,0.621C33.427,5.221,32.965,5.295,32.511,5.377z M41.844,5.009
			c-0.462-0.047-0.926-0.083-1.393-0.109l0.036-0.626c0.474,0.026,0.95,0.063,1.418,0.111L41.844,5.009z M36.466,4.904l-0.035-0.626
			c0.468-0.027,0.947-0.047,1.421-0.056l0.011,0.627C37.396,4.858,36.927,4.878,36.466,4.904z"/>
	</g>
</g>
</svg>
