<?xml version="1.0" encoding="utf-8"?>
<!-- Generator: Adobe Illustrator 15.0.2, SVG Export Plug-In . SVG Version: 6.00 Build 0)  -->
<!DOCTYPE svg PUBLIC "-//W3C//DTD SVG 1.1//EN" "http://www.w3.org/Graphics/SVG/1.1/DTD/svg11.dtd">
<svg version="1.1" id="Layer_1" xmlns="http://www.w3.org/2000/svg" xmlns:xlink="http://www.w3.org/1999/xlink" x="0px" y="0px"
	 width="77px" height="77px" viewBox="0 0 77 77" enable-background="new 0 0 77 77" xml:space="preserve">
<g>
	<path fill="#DCD9C6" d="M38.5,1.5c-20.433,0-37.001,16.567-37.001,37c0,20.434,16.568,37,37.001,37
		c20.434,0,37.002-16.566,37.002-37C75.502,18.067,58.934,1.5,38.5,1.5z M52.365,40.487c-0.879,0.747-2.799,1.978-2.98,2.813
		c-0.203,0.952,0.72,2.818,0.995,3.973c0.954,4.045,1.845,7.865,2.646,11.914c-5.095-2.355-9.144-5.754-13.901-8.439
		c-4.812,2.631-8.871,6.021-13.898,8.439c0.708-5.141,2.479-10.646,3.639-15.887c-3.709-4.014-8.644-6.8-12.081-11.088
		c5.002-0.735,10.672-0.803,15.885-1.323c2.291-4.883,3.984-10.361,6.293-15.226c0.138-0.029,0.151,0.064,0.162,0.165
		c2.509,4.61,4.059,10.176,6.289,15.061c5.265,0.525,10.985,0.593,16.052,1.323C58.887,35.19,55.689,37.661,52.365,40.487z"/>
	<path fill="#9D2033" d="M38.783,72.992h-0.074c-0.473,0-0.951-0.01-1.42-0.029l0.024-0.625c0.458,0.02,0.929,0.025,1.396,0.025
		h0.074V72.992z M41.426,72.885l-0.055-0.624c0.467-0.041,0.932-0.084,1.393-0.14l0.074,0.622
		C42.369,72.799,41.895,72.85,41.426,72.885z M34.654,72.752c-0.466-0.053-0.939-0.119-1.405-0.193l0.096-0.621
		c0.46,0.074,0.928,0.139,1.384,0.195L34.654,72.752z M45.445,72.328l-0.123-0.617c0.453-0.088,0.912-0.191,1.361-0.3l0.15,0.607
		C46.373,72.133,45.908,72.234,45.445,72.328z M30.659,72.039c-0.456-0.113-0.92-0.234-1.375-0.363l0.175-0.604
		c0.445,0.129,0.9,0.25,1.347,0.355L30.659,72.039z M49.373,71.293l-0.199-0.594c0.439-0.146,0.885-0.297,1.316-0.461l0.222,0.587
		C50.27,70.986,49.818,71.146,49.373,71.293z M26.776,70.85c-0.443-0.164-0.89-0.342-1.322-0.523l0.241-0.578
		c0.425,0.18,0.865,0.355,1.298,0.514L26.776,70.85z M53.141,69.803l-0.264-0.568c0.423-0.199,0.842-0.404,1.254-0.615l0.289,0.557
		C54.002,69.393,53.57,69.605,53.141,69.803z M23.06,69.209c-0.419-0.217-0.84-0.445-1.253-0.682l0.308-0.543
		c0.406,0.23,0.82,0.457,1.232,0.668L23.06,69.209z M56.713,67.877l-0.328-0.535c0.391-0.246,0.787-0.5,1.164-0.762l0.355,0.52
		C57.514,67.367,57.113,67.625,56.713,67.877z M19.565,67.137c-0.393-0.268-0.784-0.541-1.164-0.82l0.374-0.507
		c0.374,0.273,0.755,0.548,1.141,0.807L19.565,67.137z M60.031,65.539l-0.393-0.49c0.361-0.289,0.723-0.589,1.076-0.893l0.41,0.473
		C60.766,64.939,60.396,65.244,60.031,65.539z M16.339,64.668c-0.356-0.311-0.715-0.627-1.059-0.951l0.428-0.46
		c0.339,0.316,0.688,0.633,1.041,0.934L16.339,64.668z M63.051,62.824l-0.447-0.44c0.326-0.325,0.648-0.665,0.963-1.011l0.465,0.426
		C63.713,62.146,63.381,62.492,63.051,62.824z M13.426,61.838c-0.321-0.345-0.633-0.705-0.939-1.066l0.481-0.406
		c0.298,0.356,0.607,0.709,0.922,1.051L13.426,61.838z M65.732,59.781l-0.49-0.387c0.287-0.367,0.566-0.744,0.832-1.121l0.512,0.365
		C66.311,59.021,66.027,59.406,65.732,59.781z M10.863,58.689c-0.275-0.386-0.547-0.779-0.804-1.17l0.521-0.344
		c0.254,0.383,0.522,0.771,0.794,1.148L10.863,58.689z M68.041,56.438l-0.535-0.328c0.24-0.393,0.477-0.805,0.701-1.207l0.547,0.304
		C68.527,55.619,68.289,56.031,68.041,56.438z M8.692,55.26c-0.226-0.41-0.451-0.83-0.664-1.256l0.563-0.279
		c0.205,0.416,0.426,0.831,0.648,1.232L8.692,55.26z M69.941,52.845l-0.57-0.262c0.193-0.425,0.377-0.857,0.551-1.284l0.582,0.238
		C70.326,51.971,70.139,52.411,69.941,52.845z M6.939,51.605c-0.175-0.438-0.346-0.883-0.506-1.324l0.593-0.215
		c0.15,0.436,0.319,0.875,0.496,1.301L6.939,51.605z M71.4,49.047l-0.598-0.186c0.137-0.443,0.271-0.895,0.393-1.342l0.602,0.164
		C71.676,48.141,71.541,48.598,71.4,49.047z M5.638,47.764c-0.127-0.459-0.242-0.918-0.345-1.379l0.61-0.141
		c0.101,0.451,0.217,0.904,0.339,1.352L5.638,47.764z M72.391,45.112l-0.613-0.118c0.082-0.456,0.162-0.918,0.229-1.377l0.621,0.094
		C72.561,44.176,72.48,44.646,72.391,45.112z M4.799,43.789c-0.067-0.465-0.128-0.939-0.178-1.41l0.62-0.065
		c0.051,0.464,0.109,0.929,0.18,1.385L4.799,43.789z M72.91,41.084l-0.625-0.043c0.031-0.461,0.055-0.928,0.066-1.393l0.625,0.019
		C72.965,40.139,72.941,40.615,72.91,41.084z M4.441,39.746c-0.012-0.343-0.015-0.693-0.015-1.036c0-0.129,0-0.258,0-0.385
		l0.627,0.008c0,0.125,0,0.25,0,0.377c0,0.337,0.004,0.681,0.015,1.018L4.441,39.746z M72.324,37.057
		c-0.023-0.463-0.055-0.932-0.098-1.394l0.629-0.056c0.039,0.471,0.074,0.946,0.094,1.42L72.324,37.057z M5.184,35.743l-0.627-0.055
		c0.041-0.47,0.093-0.943,0.154-1.414l0.623,0.082C5.273,34.815,5.221,35.281,5.184,35.743z M71.895,33.096
		c-0.074-0.459-0.164-0.92-0.26-1.371l0.615-0.131c0.098,0.46,0.186,0.929,0.264,1.396L71.895,33.096z M5.765,31.802l-0.616-0.128
		c0.098-0.462,0.207-0.929,0.322-1.386l0.607,0.154C5.965,30.891,5.858,31.348,5.765,31.802z M71,29.211
		c-0.131-0.445-0.271-0.892-0.422-1.33l0.594-0.203c0.151,0.446,0.299,0.903,0.429,1.355L71,29.211z M6.812,27.957l-0.59-0.202
		c0.149-0.446,0.312-0.898,0.484-1.341l0.581,0.226C7.122,27.075,6.962,27.518,6.812,27.957z M69.65,25.464
		c-0.184-0.424-0.377-0.85-0.578-1.267l0.566-0.272c0.199,0.427,0.4,0.861,0.586,1.292L69.65,25.464z M8.316,24.259l-0.567-0.268
		c0.206-0.43,0.418-0.858,0.643-1.274l0.55,0.294C8.727,23.418,8.515,23.839,8.316,24.259z M67.865,21.906
		c-0.232-0.401-0.48-0.802-0.725-1.192l0.527-0.335c0.252,0.397,0.5,0.804,0.734,1.215L67.865,21.906z M10.245,20.768l-0.53-0.335
		c0.255-0.4,0.514-0.798,0.784-1.187l0.518,0.356C10.751,19.982,10.491,20.376,10.245,20.768z M65.666,18.582
		c-0.275-0.369-0.562-0.738-0.857-1.098l0.484-0.396c0.299,0.364,0.593,0.742,0.876,1.118L65.666,18.582z M12.573,17.527
		l-0.489-0.395c0.298-0.365,0.606-0.729,0.92-1.086l0.469,0.416C13.166,16.81,12.862,17.169,12.573,17.527z M63.1,15.538
		c-0.322-0.335-0.65-0.669-0.988-0.992l0.436-0.451c0.344,0.329,0.682,0.669,1.004,1.011L63.1,15.538z M15.261,14.586l-0.436-0.451
		c0.34-0.328,0.686-0.654,1.04-0.969l0.417,0.466C15.936,13.944,15.593,14.264,15.261,14.586z M60.186,12.815
		c-0.355-0.296-0.725-0.588-1.094-0.871l0.381-0.498c0.377,0.286,0.746,0.585,1.113,0.885L60.186,12.815z M18.279,11.98
		l-0.382-0.497c0.375-0.287,0.758-0.57,1.146-0.841l0.357,0.513C19.024,11.419,18.645,11.699,18.279,11.98z M56.971,10.451
		c-0.384-0.251-0.785-0.498-1.188-0.734l0.318-0.54c0.41,0.241,0.814,0.493,1.213,0.75L56.971,10.451z M21.578,9.749L21.259,9.21
		c0.402-0.242,0.819-0.477,1.235-0.7l0.298,0.551C22.385,9.282,21.974,9.512,21.578,9.749z M53.502,8.482
		c-0.416-0.206-0.842-0.404-1.266-0.59l0.252-0.573c0.434,0.191,0.865,0.392,1.295,0.601L53.502,8.482z M25.113,7.92L24.86,7.348
		c0.433-0.191,0.874-0.374,1.309-0.547L26.4,7.384C25.971,7.553,25.54,7.733,25.113,7.92z M49.822,6.938
		c-0.438-0.152-0.881-0.299-1.324-0.434l0.181-0.601c0.453,0.137,0.909,0.286,1.352,0.444L49.822,6.938z M28.845,6.528l-0.183-0.601
		c0.451-0.138,0.91-0.269,1.367-0.388l0.158,0.605C29.738,6.262,29.288,6.392,28.845,6.528z M45.988,5.847
		c-0.453-0.101-0.913-0.193-1.369-0.275l0.109-0.618c0.461,0.083,0.934,0.177,1.396,0.279L45.988,5.847z M32.718,5.586l-0.11-0.616
		c0.46-0.085,0.936-0.16,1.4-0.223l0.088,0.622C33.638,5.431,33.175,5.503,32.718,5.586z M42.051,5.218
		c-0.46-0.046-0.924-0.083-1.394-0.109l0.041-0.626c0.471,0.029,0.946,0.066,1.414,0.111L42.051,5.218z M36.676,5.113L36.64,4.488
		c0.468-0.028,0.948-0.045,1.417-0.055l0.016,0.626C37.604,5.068,37.137,5.086,36.676,5.113z"/>
</g>
</svg>
