<?xml version="1.0" encoding="utf-8"?>
<!-- Generator: Adobe Illustrator 15.0.2, SVG Export Plug-In . SVG Version: 6.00 Build 0)  -->
<!DOCTYPE svg PUBLIC "-//W3C//DTD SVG 1.1//EN" "http://www.w3.org/Graphics/SVG/1.1/DTD/svg11.dtd">
<svg version="1.1" id="Layer_1" xmlns="http://www.w3.org/2000/svg" xmlns:xlink="http://www.w3.org/1999/xlink" x="0px" y="0px"
	 width="77px" height="77px" viewBox="0 0 77 77" enable-background="new 0 0 77 77" xml:space="preserve">
<g>
	<path fill="#DCD9C6" d="M38.568,1.497c-20.434,0-37,16.566-37,37c0,20.433,16.566,37.007,37,37.007
		c9.908,0,18.903-3.412,25.545-10.227h0.189v-0.533c6.814-6.701,11.094-15.987,11.094-26.247
		C75.396,18.063,59.002,1.497,38.568,1.497z M56.514,28.235v4.906V50.22c0,4.264-3.42,8.241-7.684,8.241H28.307
		c-4.263,0-7.82-3.978-7.82-8.241V33.142V19.513h36.027V28.235z"/>
	<path fill="#9D2033" d="M38.651,72.78h-0.076c-0.473,0-0.95-0.011-1.42-0.029l0.023-0.625c0.464,0.017,0.933,0.024,1.397,0.024
		h0.076V72.78z M41.287,72.674L41.24,72.05c0.461-0.039,0.928-0.084,1.391-0.14l0.074,0.622
		C42.234,72.589,41.76,72.639,41.287,72.674z M34.522,72.542c-0.47-0.056-0.944-0.121-1.409-0.195l0.101-0.621
		c0.457,0.074,0.92,0.14,1.383,0.195L34.522,72.542z M45.312,72.115l-0.127-0.617c0.455-0.088,0.914-0.189,1.365-0.301l0.146,0.609
		C46.24,71.921,45.771,72.023,45.312,72.115z M30.527,71.826c-0.459-0.111-0.921-0.232-1.376-0.361l0.174-0.604
		c0.444,0.125,0.898,0.248,1.349,0.355L30.527,71.826z M49.236,71.082l-0.195-0.596c0.438-0.143,0.883-0.298,1.318-0.46l0.221,0.587
		C50.135,70.777,49.684,70.936,49.236,71.082z M26.644,70.638c-0.441-0.162-0.887-0.34-1.324-0.523l0.243-0.578
		c0.429,0.181,0.867,0.355,1.3,0.513L26.644,70.638z M53.01,69.592l-0.264-0.566c0.418-0.197,0.838-0.404,1.25-0.618l0.287,0.557
		C53.863,69.181,53.436,69.393,53.01,69.592z M22.926,68.994c-0.419-0.215-0.839-0.443-1.251-0.679l0.309-0.544
		c0.404,0.23,0.818,0.455,1.229,0.667L22.926,68.994z M56.58,67.662l-0.332-0.533c0.394-0.244,0.785-0.498,1.17-0.759l0.351,0.52
		C57.381,67.156,56.979,67.414,56.58,67.662z M19.43,66.924c-0.391-0.265-0.783-0.542-1.162-0.822l0.372-0.504
		c0.373,0.273,0.757,0.547,1.142,0.807L19.43,66.924z M59.896,65.327l-0.392-0.49c0.362-0.289,0.724-0.589,1.073-0.893l0.414,0.473
		C60.634,64.727,60.266,65.032,59.896,65.327z M16.204,64.456c-0.359-0.311-0.714-0.63-1.057-0.952l0.427-0.458
		c0.338,0.317,0.687,0.632,1.039,0.934L16.204,64.456z M62.917,62.615l-0.445-0.441c0.329-0.328,0.649-0.669,0.962-1.012
		l0.463,0.425C63.58,61.934,63.248,62.28,62.917,62.615z M13.291,61.627c-0.319-0.348-0.633-0.707-0.938-1.066l0.479-0.406
		c0.299,0.354,0.608,0.71,0.92,1.051L13.291,61.627z M65.603,59.567l-0.494-0.385c0.286-0.366,0.567-0.743,0.835-1.119l0.509,0.365
		C66.18,58.811,65.893,59.195,65.603,59.567z M10.73,58.479c-0.274-0.382-0.545-0.777-0.806-1.17l0.524-0.345
		c0.255,0.384,0.521,0.772,0.791,1.147L10.73,58.479z M67.91,56.227L67.371,55.9c0.242-0.396,0.479-0.803,0.703-1.209l0.547,0.303
		C68.394,55.407,68.153,55.822,67.91,56.227z M8.56,55.05c-0.229-0.41-0.451-0.833-0.664-1.256l0.562-0.282
		c0.207,0.415,0.426,0.83,0.649,1.232L8.56,55.05z M69.807,52.631l-0.57-0.259c0.191-0.423,0.376-0.855,0.552-1.284l0.581,0.236
		C70.191,51.762,70.002,52.199,69.807,52.631z M6.809,51.394c-0.178-0.437-0.347-0.883-0.507-1.326l0.588-0.211
		c0.156,0.433,0.324,0.872,0.498,1.299L6.809,51.394z M71.264,48.837l-0.596-0.188c0.141-0.442,0.27-0.894,0.393-1.341l0.605,0.166
		C71.543,47.928,71.408,48.385,71.264,48.837z M5.504,47.551c-0.125-0.454-0.241-0.92-0.346-1.379l0.61-0.141
		c0.104,0.452,0.219,0.906,0.341,1.353L5.504,47.551z M72.26,44.899l-0.619-0.117c0.088-0.454,0.166-0.917,0.232-1.375l0.621,0.092
		C72.425,43.965,72.346,44.439,72.26,44.899z M4.668,43.578c-0.069-0.469-0.132-0.94-0.181-1.412l0.624-0.065
		c0.049,0.462,0.108,0.927,0.178,1.385L4.668,43.578z M72.776,40.873l-0.626-0.041c0.032-0.462,0.055-0.93,0.065-1.395l0.63,0.018
		C72.832,39.925,72.809,40.405,72.776,40.873z M4.308,39.535c-0.011-0.345-0.016-0.692-0.016-1.038c0-0.127,0.001-0.256,0.002-0.383
		l0.627,0.006c-0.001,0.125-0.003,0.251-0.003,0.377c0,0.34,0.006,0.684,0.016,1.02L4.308,39.535z M72.193,36.845
		c-0.024-0.461-0.059-0.929-0.1-1.393l0.625-0.055c0.043,0.471,0.074,0.949,0.1,1.419L72.193,36.845z M5.048,35.532l-0.625-0.054
		c0.041-0.469,0.092-0.946,0.153-1.413l0.622,0.079C5.139,34.604,5.089,35.071,5.048,35.532z M71.764,32.881
		c-0.077-0.458-0.165-0.917-0.264-1.371l0.615-0.129c0.097,0.46,0.186,0.931,0.265,1.396L71.764,32.881z M5.631,31.589l-0.613-0.127
		c0.096-0.462,0.205-0.93,0.319-1.386l0.607,0.154C5.833,30.678,5.726,31.137,5.631,31.589z M70.867,29
		c-0.133-0.445-0.272-0.892-0.422-1.33l0.593-0.203c0.15,0.447,0.296,0.903,0.429,1.357L70.867,29z M6.679,27.746l-0.593-0.202
		c0.15-0.446,0.313-0.897,0.484-1.341l0.584,0.226C6.989,26.863,6.829,27.306,6.679,27.746z M69.516,25.254
		c-0.185-0.426-0.377-0.853-0.576-1.268l0.564-0.272c0.203,0.424,0.399,0.858,0.588,1.291L69.516,25.254z M8.181,24.048
		l-0.566-0.271c0.205-0.426,0.42-0.854,0.64-1.271l0.553,0.293C8.593,23.207,8.38,23.628,8.181,24.048z M67.729,21.695
		c-0.229-0.401-0.474-0.803-0.725-1.192l0.531-0.336c0.254,0.397,0.5,0.807,0.738,1.216L67.729,21.695z M10.112,20.556L9.58,20.22
		c0.253-0.399,0.517-0.798,0.787-1.187l0.516,0.357C10.618,19.771,10.359,20.163,10.112,20.556z M65.535,18.371
		c-0.277-0.372-0.564-0.741-0.859-1.1l0.486-0.396c0.299,0.365,0.593,0.743,0.875,1.12L65.535,18.371z M12.437,17.316l-0.486-0.396
		c0.297-0.366,0.606-0.731,0.917-1.085l0.471,0.416C13.034,16.598,12.73,16.957,12.437,17.316z M62.961,15.326
		c-0.316-0.334-0.649-0.667-0.979-0.991l0.437-0.45c0.338,0.329,0.674,0.669,0.998,1.009L62.961,15.326z M15.129,14.375
		l-0.438-0.451c0.338-0.329,0.688-0.655,1.039-0.969l0.418,0.466C15.804,13.73,15.461,14.051,15.129,14.375z M60.053,12.603
		c-0.357-0.296-0.723-0.588-1.092-0.871l0.379-0.498c0.375,0.286,0.75,0.583,1.112,0.886L60.053,12.603z M18.144,11.769l-0.38-0.497
		c0.372-0.288,0.757-0.57,1.145-0.842l0.36,0.514C18.888,11.209,18.512,11.488,18.144,11.769z M56.839,10.24
		c-0.39-0.252-0.788-0.5-1.187-0.736l0.316-0.54c0.406,0.241,0.814,0.493,1.209,0.751L56.839,10.24z M21.444,9.536l-0.321-0.541
		c0.406-0.241,0.823-0.474,1.236-0.698l0.298,0.552C22.25,9.068,21.842,9.3,21.444,9.536z M53.369,8.271
		c-0.416-0.206-0.841-0.404-1.266-0.59l0.25-0.574c0.433,0.189,0.867,0.393,1.291,0.601L53.369,8.271z M24.982,7.709l-0.254-0.572
		c0.43-0.192,0.872-0.376,1.307-0.548l0.231,0.583C25.837,7.341,25.404,7.521,24.982,7.709z M49.69,6.727
		c-0.438-0.152-0.885-0.298-1.331-0.436l0.184-0.599c0.455,0.138,0.909,0.287,1.355,0.444L49.69,6.727z M28.71,6.316l-0.183-0.6
		c0.452-0.139,0.911-0.268,1.369-0.388l0.157,0.606C29.606,6.051,29.154,6.179,28.71,6.316z M45.855,5.635
		c-0.456-0.102-0.913-0.193-1.369-0.274l0.109-0.617c0.463,0.083,0.934,0.176,1.395,0.278L45.855,5.635z M32.584,5.375l-0.111-0.616
		c0.465-0.084,0.937-0.16,1.404-0.223l0.085,0.621C33.504,5.218,33.041,5.292,32.584,5.375z M41.918,5.006
		c-0.458-0.046-0.93-0.082-1.391-0.109l0.035-0.627c0.473,0.028,0.949,0.064,1.419,0.111L41.918,5.006z M36.542,4.902l-0.038-0.626
		c0.469-0.028,0.948-0.047,1.42-0.055l0.012,0.625C37.471,4.855,37.003,4.875,36.542,4.902z"/>
	<g>
		<polygon fill="#DCD9C6" points="41.908,47.75 41.908,42.016 39.936,47.75 		"/>
		<path fill="#DCD9C6" d="M22.434,33.145V50.22c0,3.201,2.672,6.294,5.873,6.294H48.83c3.201,0,5.734-3.093,5.734-6.294V33.145
			H22.434z M35.092,51.645h-1.947V40.934h-1.947v-1.525c1.947,0,2.546-0.421,2.898-1.396h0.997V51.645z M45.803,49.697h-0.975v1.947
			h-2.92v-1.947h-3.896V47.38l3.974-9.367h2.842v9.737h0.975V49.697z"/>
	</g>
	<g>
		<path fill="#DCD9C6" d="M30.69,30.097c-0.211,0-0.37,0-0.561-0.021l-0.044-1.097c0.18-0.039,0.323-0.039,0.447-0.039
			c0.283,0,0.608-0.074,0.608-0.651v-5.585l1.202-0.05l0.05,5.552C32.392,29.461,31.819,30.097,30.69,30.097z"/>
		<path fill="#DCD9C6" d="M32.342,22.704v5.502c0,1.463-0.782,1.84-1.652,1.84c-0.209,0-0.366,0-0.555-0.021v-1.047
			c0.127,0.011,0.271,0.011,0.397,0.011c0.365,0,0.658-0.137,0.658-0.701v-5.585H32.342 M30.135,28.979L30.135,28.979
			c0,0-0.001,0-0.001,0H30.135 M32.442,22.604h-0.1H31.19h-0.1v0.1v5.585c0,0.528-0.268,0.601-0.558,0.601
			c-0.125,0-0.266,0-0.388-0.011l-0.109-0.009v0.109v1.047v0.089l0.089,0.01c0.195,0.021,0.359,0.021,0.566,0.021
			c1.163,0,1.752-0.653,1.752-1.94v-5.502V22.604L32.442,22.604z"/>
	</g>
	<g>
		<path fill="#DCD9C6" d="M35.833,30.171c-1.139,0-1.766-0.671-1.766-1.891v-5.575l1.202-0.05l0.05,5.698
			c0,0.451,0.173,0.662,0.544,0.662c0.374,0,0.548-0.21,0.548-0.662v-5.648l1.136-0.05l0.05,5.625
			C37.597,29.5,36.97,30.171,35.833,30.171z"/>
		<path fill="#DCD9C6" d="M37.547,22.705v5.575c0,1.17-0.583,1.841-1.714,1.841c-1.127,0-1.716-0.669-1.716-1.841v-5.575h1.152
			v5.648c0,0.523,0.229,0.711,0.594,0.711c0.366,0,0.598-0.187,0.598-0.711v-5.648H37.547 M37.647,22.605h-0.1h-1.086h-0.1v0.1
			v5.648c0,0.539-0.252,0.611-0.498,0.611c-0.245,0-0.494-0.073-0.494-0.611v-5.648v-0.1h-0.1h-1.152h-0.1v0.1v5.575
			c0,1.252,0.645,1.941,1.816,1.941c1.17,0,1.814-0.689,1.814-1.941v-5.575V22.605L37.647,22.605z"/>
	</g>
	<g>
		<polygon fill="#DCD9C6" points="39.379,30.076 39.329,22.705 40.53,22.655 40.58,28.979 42.421,28.929 42.471,30.076 		"/>
		<path fill="#DCD9C6" d="M40.53,22.705v6.274h1.891v1.047h-3.042v-7.321H40.53 M40.63,22.605h-0.1h-1.151h-0.1v0.1v7.321v0.1h0.1
			h3.042h0.1v-0.1v-1.047v-0.1h-0.1H40.63v-6.174V22.605L40.63,22.605z"/>
	</g>
	<g>
		<polygon fill="#DCD9C6" points="44.397,30.076 44.348,27.601 42.897,22.719 44.15,22.655 45.075,26.03 45.855,22.692 
			47.003,22.655 45.598,27.615 45.6,30.076 		"/>
		<path fill="#DCD9C6" d="M47.003,22.705l-1.453,4.896v2.425h-1.152v-2.425l-1.452-4.896h1.205l0.876,3.337l0.878-3.337H47.003
			 M47.137,22.605h-0.134h-1.099h-0.077l-0.02,0.075l-0.781,2.969l-0.779-2.969l-0.02-0.075H44.15h-1.205h-0.134l0.038,0.128
			l1.448,4.882v2.411v0.1h0.1h1.152h0.1v-0.1v-2.411l1.449-4.882L47.137,22.605L47.137,22.605z"/>
	</g>
</g>
</svg>
