<?xml version="1.0" encoding="utf-8"?>
<!-- Generator: Adobe Illustrator 15.0.2, SVG Export Plug-In . SVG Version: 6.00 Build 0)  -->
<!DOCTYPE svg PUBLIC "-//W3C//DTD SVG 1.1//EN" "http://www.w3.org/Graphics/SVG/1.1/DTD/svg11.dtd">
<svg version="1.1" id="Layer_1" xmlns="http://www.w3.org/2000/svg" xmlns:xlink="http://www.w3.org/1999/xlink" x="0px" y="0px"
	 width="77px" height="77px" viewBox="0 0 77 77" enable-background="new 0 0 77 77" xml:space="preserve">
<g>
	<g>
		<path fill="#DCD9C6" d="M38.393,33.805c-3.488,0-6.23,2.928-6.23,6.325c0,3.501,2.742,6.231,6.23,6.231
			c3.395,0,6.332-2.73,6.332-6.231C44.725,36.733,41.788,33.805,38.393,33.805z"/>
		<path fill="#DCD9C6" d="M38.502,1.5C18.067,1.5,1.5,18.067,1.5,38.5c0,20.434,16.567,37,37.002,37
			c20.434,0,36.998-16.566,36.998-37C75.5,18.067,58.936,1.5,38.502,1.5z M43.213,15.733c1.314,0.284,2.607,0.691,3.847,1.21
			l-3.04,7.28c-0.799-0.333-1.632-0.592-2.478-0.776L43.213,15.733z M34.306,15.625l1.483,7.751c-0.85,0.162-1.688,0.403-2.49,0.719
			l-2.868-7.353C31.68,16.254,32.986,15.878,34.306,15.625z M24.213,37.041l-7.887-0.203c0.033-1.343,0.188-2.688,0.466-4
			l7.724,1.62C24.337,35.303,24.237,36.172,24.213,37.041z M20.343,24.658c0.771-1.096,1.649-2.127,2.611-3.071l5.528,5.631
			c-0.621,0.608-1.187,1.277-1.683,1.98L20.343,24.658z M48.307,46.287C46.426,49.922,38.502,60.4,38.502,60.4
			s-8.049-10.557-9.898-14.293c-0.786-1.59-1.235-3.394-1.235-5.312c0-6.4,4.986-11.598,11.133-11.598
			c6.146,0,11.129,5.198,11.129,11.598C49.631,42.783,49.152,44.654,48.307,46.287z M48.959,27.676
			c-0.066-0.07-0.139-0.143-0.204-0.215l5.667-5.493c0.932,0.961,1.789,2.021,2.528,3.129l-6.562,4.387
			C49.965,28.849,49.486,28.24,48.959,27.676z M52.785,37.383c-0.004-0.868-0.082-1.74-0.234-2.59l7.754-1.434
			c0.248,1.319,0.371,2.667,0.373,4.011L52.785,37.383z"/>
	</g>
	<g>
		<path fill="#9D2033" d="M38.502,72.784c-0.472,0-0.952-0.012-1.42-0.032l0.024-0.622c0.46,0.017,0.929,0.026,1.396,0.026h0.075
			v0.628H38.502z M41.216,72.676l-0.052-0.624c0.468-0.038,0.934-0.083,1.393-0.138l0.075,0.621
			C42.164,72.592,41.688,72.641,41.216,72.676z M34.448,72.545c-0.466-0.054-0.94-0.122-1.405-0.195l0.095-0.621
			c0.461,0.074,0.925,0.139,1.385,0.193L34.448,72.545z M45.239,72.119l-0.126-0.617c0.457-0.09,0.916-0.191,1.363-0.301l0.15,0.608
			C46.167,71.922,45.699,72.025,45.239,72.119z M30.453,71.828c-0.457-0.109-0.92-0.231-1.376-0.361l0.172-0.604
			c0.448,0.127,0.905,0.25,1.35,0.355L30.453,71.828z M49.164,71.086l-0.197-0.594c0.441-0.146,0.886-0.302,1.318-0.464l0.221,0.587
			C50.064,70.779,49.612,70.938,49.164,71.086z M26.57,70.641c-0.444-0.164-0.89-0.342-1.323-0.523l0.243-0.58
			c0.424,0.182,0.864,0.356,1.297,0.517L26.57,70.641z M52.936,69.596l-0.264-0.568c0.422-0.197,0.842-0.406,1.254-0.619
			l0.287,0.558C53.792,69.184,53.365,69.393,52.936,69.596z M22.853,69c-0.417-0.217-0.84-0.445-1.253-0.681l0.309-0.544
			c0.406,0.229,0.82,0.454,1.231,0.667L22.853,69z M56.506,67.665l-0.33-0.532c0.393-0.244,0.788-0.502,1.166-0.759l0.355,0.517
			C57.307,67.154,56.906,67.416,56.506,67.665z M19.358,66.926c-0.391-0.265-0.784-0.539-1.164-0.818l0.374-0.507
			c0.372,0.273,0.757,0.546,1.14,0.807L19.358,66.926z M59.824,65.33l-0.393-0.49c0.361-0.29,0.724-0.59,1.074-0.893l0.412,0.474
			C60.561,64.729,60.191,65.035,59.824,65.33z M16.131,64.459c-0.358-0.311-0.715-0.63-1.061-0.951l0.43-0.459
			c0.335,0.315,0.687,0.631,1.037,0.934L16.131,64.459z M62.846,62.619l-0.449-0.443c0.327-0.326,0.648-0.667,0.964-1.01
			l0.464,0.422C63.506,61.936,63.176,62.283,62.846,62.619z M13.22,61.629c-0.32-0.346-0.635-0.707-0.94-1.067l0.479-0.404
			c0.3,0.354,0.61,0.709,0.922,1.05L13.22,61.629z M65.527,59.57l-0.492-0.385c0.287-0.367,0.567-0.744,0.834-1.119l0.51,0.363
			C66.105,58.812,65.822,59.198,65.527,59.57z M10.658,58.48c-0.277-0.385-0.548-0.777-0.806-1.168l0.521-0.348
			c0.253,0.387,0.521,0.774,0.794,1.15L10.658,58.48z M67.836,56.228l-0.537-0.325c0.241-0.397,0.477-0.804,0.702-1.209l0.546,0.305
			C68.319,55.41,68.083,55.823,67.836,56.228z M8.487,55.053c-0.228-0.413-0.453-0.834-0.665-1.257l0.562-0.282
			c0.207,0.416,0.426,0.832,0.649,1.236L8.487,55.053z M69.735,52.633l-0.57-0.256c0.192-0.426,0.374-0.857,0.55-1.287l0.582,0.237
			C70.117,51.761,69.932,52.202,69.735,52.633z M6.732,51.396c-0.175-0.436-0.345-0.882-0.507-1.323l0.594-0.213
			c0.153,0.436,0.32,0.871,0.497,1.301L6.732,51.396z M71.194,48.84l-0.599-0.188c0.139-0.442,0.271-0.894,0.39-1.343l0.606,0.168
			C71.469,47.932,71.336,48.389,71.194,48.84z M5.432,47.554c-0.127-0.458-0.242-0.919-0.346-1.378l0.612-0.143
			c0.101,0.452,0.215,0.906,0.338,1.355L5.432,47.554z M72.186,44.904l-0.618-0.12c0.087-0.454,0.165-0.915,0.232-1.375l0.621,0.095
			C72.354,43.967,72.275,44.438,72.186,44.904z M4.592,43.579c-0.066-0.466-0.13-0.939-0.18-1.411l0.624-0.062
			c0.049,0.46,0.108,0.927,0.179,1.383L4.592,43.579z M72.704,40.875l-0.63-0.041c0.035-0.463,0.06-0.93,0.066-1.395l0.631,0.018
			C72.76,39.928,72.735,40.407,72.704,40.875z M4.234,39.537c-0.01-0.345-0.014-0.694-0.014-1.036c0-0.129,0-0.258,0-0.383
			l0.626,0.006c0,0.125,0,0.25,0,0.377c0,0.338,0.003,0.681,0.016,1.02L4.234,39.537z M72.117,36.848
			c-0.023-0.462-0.055-0.932-0.098-1.394l0.627-0.055c0.041,0.469,0.074,0.945,0.097,1.419L72.117,36.848z M4.972,35.535
			L4.349,35.48c0.041-0.469,0.095-0.946,0.153-1.414l0.625,0.08C5.065,34.607,5.013,35.073,4.972,35.535z M71.689,32.884
			c-0.074-0.457-0.165-0.917-0.264-1.372l0.618-0.129c0.095,0.46,0.183,0.931,0.263,1.397L71.689,32.884z M5.559,31.591
			l-0.615-0.126c0.097-0.463,0.204-0.931,0.32-1.386l0.607,0.154C5.76,30.681,5.652,31.139,5.559,31.591z M70.793,29.002
			c-0.13-0.445-0.271-0.892-0.422-1.329l0.595-0.203c0.152,0.446,0.294,0.902,0.427,1.356L70.793,29.002z M6.606,27.749
			l-0.594-0.202c0.149-0.447,0.312-0.898,0.486-1.341l0.583,0.226C6.916,26.866,6.755,27.31,6.606,27.749z M69.443,25.256
			c-0.185-0.425-0.377-0.851-0.578-1.269l0.566-0.271c0.201,0.424,0.396,0.859,0.586,1.291L69.443,25.256z M8.105,24.051
			l-0.562-0.271c0.204-0.427,0.417-0.855,0.637-1.27l0.556,0.291C8.52,23.21,8.308,23.631,8.105,24.051z M67.658,21.698
			c-0.232-0.401-0.479-0.803-0.724-1.192l0.527-0.336c0.252,0.396,0.499,0.806,0.735,1.215L67.658,21.698z M10.04,20.56
			l-0.531-0.335c0.249-0.4,0.514-0.799,0.784-1.187l0.518,0.357C10.546,19.774,10.284,20.165,10.04,20.56z M65.461,18.374
			c-0.277-0.37-0.564-0.741-0.857-1.1l0.482-0.396c0.299,0.366,0.594,0.744,0.877,1.119L65.461,18.374z M12.365,17.319l-0.488-0.395
			c0.298-0.365,0.607-0.731,0.919-1.085l0.469,0.415C12.959,16.602,12.655,16.96,12.365,17.319z M62.89,15.329
			c-0.319-0.334-0.65-0.668-0.984-0.992l0.437-0.451c0.339,0.329,0.68,0.67,1.002,1.01L62.89,15.329z M15.055,14.378l-0.437-0.45
			c0.341-0.33,0.686-0.655,1.04-0.97l0.42,0.467C15.729,13.733,15.387,14.055,15.055,14.378z M59.979,12.606
			c-0.354-0.296-0.723-0.589-1.094-0.871l0.383-0.499c0.373,0.286,0.748,0.584,1.113,0.886L59.979,12.606z M18.071,11.771
			l-0.379-0.498c0.375-0.287,0.757-0.57,1.144-0.841l0.358,0.514C18.817,11.211,18.436,11.49,18.071,11.771z M56.766,10.242
			c-0.387-0.251-0.787-0.499-1.188-0.736l0.318-0.54c0.409,0.243,0.813,0.494,1.211,0.751L56.766,10.242z M21.372,9.54l-0.32-0.542
			c0.403-0.238,0.819-0.474,1.235-0.699l0.297,0.553C22.177,9.071,21.767,9.302,21.372,9.54z M53.297,8.275
			c-0.418-0.206-0.842-0.404-1.268-0.591l0.252-0.573c0.432,0.189,0.866,0.393,1.289,0.6L53.297,8.275z M24.907,7.711L24.654,7.14
			c0.432-0.192,0.873-0.377,1.309-0.547l0.232,0.583C25.763,7.342,25.333,7.524,24.907,7.711z M49.615,6.729
			C49.18,6.577,48.73,6.43,48.291,6.294l0.176-0.598c0.458,0.138,0.91,0.287,1.358,0.445L49.615,6.729z M28.637,6.319l-0.183-0.601
			c0.452-0.137,0.911-0.268,1.369-0.388l0.157,0.605C29.532,6.054,29.081,6.181,28.637,6.319z M45.781,5.637
			c-0.452-0.102-0.912-0.192-1.367-0.274l0.109-0.617c0.461,0.082,0.932,0.175,1.394,0.277L45.781,5.637z M32.513,5.378
			l-0.112-0.617c0.463-0.084,0.937-0.16,1.402-0.223l0.087,0.621C33.429,5.221,32.967,5.295,32.513,5.378z M41.846,5.008
			c-0.461-0.045-0.925-0.082-1.393-0.107l0.035-0.627c0.475,0.027,0.949,0.065,1.42,0.11L41.846,5.008z M36.47,4.905l-0.037-0.626
			c0.466-0.028,0.948-0.048,1.416-0.055l0.017,0.625C37.398,4.858,36.928,4.878,36.47,4.905z"/>
	</g>
</g>
</svg>
