<?xml version="1.0" encoding="utf-8"?>
<!-- Generator: Adobe Illustrator 15.0.2, SVG Export Plug-In . SVG Version: 6.00 Build 0)  -->
<!DOCTYPE svg PUBLIC "-//W3C//DTD SVG 1.1//EN" "http://www.w3.org/Graphics/SVG/1.1/DTD/svg11.dtd">
<svg version="1.1" id="Layer_1" xmlns="http://www.w3.org/2000/svg" xmlns:xlink="http://www.w3.org/1999/xlink" x="0px" y="0px"
	 width="20px" height="20px" viewBox="0 0 20 20" enable-background="new 0 0 20 20" xml:space="preserve">
<g>
	<path fill="#FFFFFF" d="M10.083,0.167c-5.246,0-9.5,4.253-9.5,9.5s4.254,9.5,9.5,9.5s9.5-4.253,9.5-9.5S15.329,0.167,10.083,0.167z
		"/>
</g>
<g>
	<g>
		<path fill="#9D2033" stroke="#9D2033" stroke-width="0.5" stroke-miterlimit="10" d="M9.202,15.039V8.535H7.654V6.79h3.51v8.249
			h1.549v1.745H7.654v-1.745H9.202z M8.924,3.394c0-0.317,0.111-0.593,0.335-0.827c0.224-0.233,0.508-0.351,0.853-0.351
			c0.323,0,0.603,0.113,0.837,0.341c0.232,0.227,0.35,0.506,0.35,0.837c0,0.33-0.117,0.61-0.35,0.841
			c-0.234,0.23-0.514,0.346-0.837,0.346C9.78,4.58,9.5,4.463,9.27,4.229C9.039,3.995,8.924,3.717,8.924,3.394z"/>
	</g>
</g>
</svg>
