<?xml version="1.0" encoding="utf-8"?>
<!-- Generator: Adobe Illustrator 15.0.2, SVG Export Plug-In . SVG Version: 6.00 Build 0)  -->
<!DOCTYPE svg PUBLIC "-//W3C//DTD SVG 1.1//EN" "http://www.w3.org/Graphics/SVG/1.1/DTD/svg11.dtd">
<svg version="1.1" id="Layer_1" xmlns="http://www.w3.org/2000/svg" xmlns:xlink="http://www.w3.org/1999/xlink" x="0px" y="0px"
	 width="20px" height="20px" viewBox="0 0 20 20" enable-background="new 0 0 20 20" xml:space="preserve">
<g>
	<path fill="#FFFFFF" d="M10.083,0.167c-5.246,0-9.5,4.253-9.5,9.5s4.254,9.5,9.5,9.5s9.5-4.253,9.5-9.5S15.329,0.167,10.083,0.167z
		"/>
	<path fill="#9D2033" d="M10.083,3.259c-2.59,0-4.69,2.189-4.69,4.887c0,0.809,0.188,1.567,0.52,2.239
		c0.78,1.574,4.171,6.023,4.171,6.023s3.34-4.416,4.132-5.948c0.355-0.688,0.559-1.478,0.559-2.314
		C14.773,5.449,12.673,3.259,10.083,3.259z M10.04,9.793c-1.238,0-2.211-0.97-2.211-2.213c0-1.206,0.973-2.245,2.211-2.245
		c1.206,0,2.247,1.039,2.247,2.245C12.287,8.824,11.246,9.793,10.04,9.793z"/>
</g>
</svg>
